<svg xmlns="http://www.w3.org/2000/svg" viewBox="0 0 129.66 74.57"><defs><style>.cls-1{fill:#1d1d1b;}.cls-2{fill:#e6223f;}</style></defs><title>ENU logo Stacked</title><g id="Layer_2" data-name="Layer 2"><path class="cls-1" d="M54.13,71.37c-2.3,0-3.48-1.39-3.48-4.06V61.58h1.07v5.7c0,2.08.8,3.11,2.47,3.11s2.33-1,2.33-3.08V61.58h1.07v5.7C57.59,70,56.45,71.37,54.13,71.37Z"/><path class="cls-1" d="M66.26,71.22,62,64.62c-.2-.33-.56-1-.68-1.21v7.81h-1V61.58h1l4.17,6.72c.21.33.57,1,.69,1.21V61.58h1v9.64Z"/><path class="cls-1" d="M70.19,71.22V61.58h1.07v9.64Z"/><path class="cls-1" d="M77.8,71.22H76.62l-3.28-9.64h1.13l2.15,6.6c.19.57.49,1.55.59,1.9.1-.35.43-1.37.61-1.93L80,61.58h1.1Z"/><path class="cls-1" d="M83,71.22V61.58h5.82v1H84.1v3h2.76v1H84.1v3.68h5v1Z"/><path class="cls-1" d="M95.8,67l2.12,4.19H96.68l-2.07-4.1H92.33v4.1H91.25V61.58h3.82c1.69,0,3,.87,3,2.73A2.63,2.63,0,0,1,95.8,67ZM95,62.56h-2.7v3.59h2.56c1.43,0,2.1-.59,2.1-1.8S96.31,62.56,95,62.56Z"/><path class="cls-1" d="M103.07,71.37A4.57,4.57,0,0,1,99.83,70l.72-.79a3.66,3.66,0,0,0,2.56,1.15c1.28,0,2.08-.63,2.08-1.65s-.54-1.4-2.3-2c-2.08-.74-2.78-1.42-2.78-2.81s1.21-2.46,3-2.46a4.32,4.32,0,0,1,2.94,1l-.69.84a3.34,3.34,0,0,0-2.32-.89c-1.32,0-1.87.66-1.87,1.41s.36,1.26,2.29,1.95c2.13.77,2.79,1.48,2.79,2.92S105.08,71.37,103.07,71.37Z"/><path class="cls-1" d="M108.82,71.22V61.58h1.07v9.64Z"/><path class="cls-1" d="M115.6,62.56v8.66h-1.07V62.56h-2.84v-1h6.75v1Z"/><path class="cls-1" d="M123.92,67.39v3.83h-1.07V67.4l-3.31-5.82h1.23l1.54,2.77c.39.7.81,1.5,1.09,2.06.28-.56.7-1.37,1.09-2.06L126,61.58h1.2Z"/><path class="cls-1" d="M0,54.35V41.28H7.9V42.6H1.46v4.11H5.67V48H1.46v5H8.18v1.32Z"/><path class="cls-1" d="M15.44,54.34l-.39-1.18a3.92,3.92,0,0,1-3,1.4c-2,0-3.51-1.5-3.51-5s1.64-5.27,3.69-5.27a3.47,3.47,0,0,1,2.77,1.31V41.52l1.4-.79V54.34ZM15.05,47a3.22,3.22,0,0,0-2.65-1.48c-1.63,0-2.43,1.41-2.43,4,0,2.47.93,3.75,2.48,3.75a3.34,3.34,0,0,0,2.6-1.41Z"/><path class="cls-1" d="M19.31,42.79a1,1,0,1,1,1-1A1,1,0,0,1,19.31,42.79Zm-.73,11.56v-9.8H20v9.8Z"/><path class="cls-1" d="M28.3,54.35V48.62c0-2.11-.75-3.07-2.32-3.07-1.36,0-2.43.92-2.43,3.07v5.73h-1.4v-9.8h1.4v1.19a3.18,3.18,0,0,1,2.71-1.4c2.07,0,3.44,1.21,3.44,4v6Z"/><path class="cls-1" d="M35.91,54.56a3.5,3.5,0,0,1-2.77-1.31v.68l-1.4.84V41.52l1.4-.79v5a3.94,3.94,0,0,1,3-1.4c2,0,3.51,1.49,3.51,4.95S38,54.56,35.91,54.56Zm-.17-9A3.34,3.34,0,0,0,33.14,47v4.9a3.23,3.23,0,0,0,2.66,1.47c1.62,0,2.43-1.4,2.43-4C38.23,46.84,37.29,45.55,35.74,45.55Z"/><path class="cls-1" d="M47.64,54.35l-.37-1.19a3.18,3.18,0,0,1-2.71,1.4c-2.07,0-3.44-1.22-3.44-4v-6h1.4v5.73c0,2.11.75,3.06,2.32,3.06,1.36,0,2.43-.91,2.43-3.06V44.55h1.4v9.8Z"/><path class="cls-1" d="M55.69,46a2.79,2.79,0,0,0-1.47-.37c-1.37,0-2.13,1.1-2.13,3v5.75h-1.4v-9.8h1.4v1.21a2.86,2.86,0,0,1,2.43-1.42,3.76,3.76,0,0,1,1.53.24Z"/><path class="cls-1" d="M58.65,58l-.45-1.07h.64c3-.14,3.67-1,3.67-3.22v-.5a3.9,3.9,0,0,1-2.95,1.4c-2,0-3.51-1.5-3.51-5s1.64-5.27,3.7-5.27a3.46,3.46,0,0,1,2.76,1.31v-1.1h1.4v8.93c0,2.86-1.25,4.29-4.66,4.47ZM62.51,47a3.2,3.2,0,0,0-2.65-1.48c-1.62,0-2.43,1.41-2.43,4,0,2.47.94,3.75,2.49,3.75a3.34,3.34,0,0,0,2.59-1.41Z"/><path class="cls-1" d="M72,54.35V48.62c0-2.11-.74-3.07-2.31-3.07-1.37,0-2.43.92-2.43,3.07v5.73h-1.4V41.52l1.4-.79v5A3.17,3.17,0,0,1,70,44.34c2.07,0,3.43,1.21,3.43,4v6Z"/><path class="cls-1" d="M87.47,54.35l-5.71-9c-.28-.44-.77-1.3-.94-1.64V54.35h-1.4V41.28h1.42l5.66,9.11c.28.45.77,1.31.94,1.65V41.28h1.4V54.35Z"/><path class="cls-1" d="M96.91,54.34l-.3-1.18a4,4,0,0,1-3.06,1.4,2.88,2.88,0,0,1-3.14-3.14c0-2.2,1.81-3.14,3.75-3.14a5.25,5.25,0,0,1,2.45.56V47.68a1.88,1.88,0,0,0-2.13-2.16,5.16,5.16,0,0,0-2.67.74l-.52-1.14a7.06,7.06,0,0,1,3.28-.78c2.12,0,3.44.9,3.44,3.18v6.82ZM96.61,50a4.8,4.8,0,0,0-2.52-.56c-1.44,0-2.3.69-2.3,1.93a1.84,1.84,0,0,0,2,2.09,3.42,3.42,0,0,0,2.82-1.48Z"/><path class="cls-1" d="M104.23,54.56a3.46,3.46,0,0,1-2.76-1.31v3.92l-1.4.79V44.55h1.4v1.19a3.9,3.9,0,0,1,3-1.4c2,0,3.51,1.49,3.51,4.95S106.29,54.56,104.23,54.56Zm-.16-9a3.33,3.33,0,0,0-2.6,1.42v4.9a3.2,3.2,0,0,0,2.65,1.47c1.63,0,2.43-1.4,2.43-4C106.55,46.84,105.62,45.55,104.07,45.55Z"/><path class="cls-1" d="M110.44,42.79a1,1,0,1,1,1-1A1,1,0,0,1,110.44,42.79Zm-.73,11.56v-9.8h1.4v9.8Z"/><path class="cls-1" d="M120.94,49.93H114.4c.13,2.09,1.12,3.41,2.72,3.41a4.34,4.34,0,0,0,2.71-.93l.66,1A5.8,5.8,0,0,1,117,54.56c-1.8,0-4-1.31-4-5.16,0-3.12,1.71-5.06,4-5.06,2.56,0,3.94,2,3.94,4.82A5.3,5.3,0,0,1,120.94,49.93ZM117,45.55c-1.46,0-2.47,1.05-2.63,3.24h5.28C119.57,46.88,118.75,45.55,117,45.55Z"/><path class="cls-1" d="M127.83,46a2.81,2.81,0,0,0-1.48-.37c-1.36,0-2.13,1.1-2.13,3v5.75h-1.4v-9.8h1.4v1.21a2.88,2.88,0,0,1,2.43-1.42,3.72,3.72,0,0,1,1.53.24Z"/><polygon class="cls-2" points="73.44 0 94.54 35.12 129.66 14.02 73.44 0"/></g></svg>